<svg xmlns="http://www.w3.org/2000/svg" width="40" height="40" viewBox="0 0 40 40" fill="none">
<rect width="40" height="40" rx="9" ry="9" fill="url(#paint0_linear_13156_47681)"/>
<path d="M20.0002 31.2114C18.5407 31.2114 17.1788 31.0098 15.9527 30.6129C14.7094 30.2098 13.6279 29.6082 12.7387 28.8246C11.846 28.0397 11.1385 27.0652 10.6362 25.9283C10.1362 24.7959 9.88281 23.5055 9.88281 22.0918V12.5508C9.88281 11.6315 10.168 10.9409 10.7309 10.4986C11.2495 10.0902 11.9614 9.88281 12.8466 9.88281C13.3705 9.88281 13.8604 9.95045 14.303 10.0844C14.7103 10.2072 14.9809 10.2962 15.1316 10.3567L15.6733 10.5569V21.1632C15.6733 22.7904 16.0438 24.0288 16.7747 24.8444C17.4901 25.6435 18.4584 25.9942 19.9998 25.9942C21.5411 25.9942 22.547 25.5888 23.2624 24.7896C23.9938 23.9736 24.3647 22.7348 24.3647 21.1084V12.5508C24.3647 11.6315 24.6499 10.9409 25.2128 10.4986C25.7319 10.0902 26.5684 9.88281 27.4271 9.88281C27.9772 9.88281 28.4799 9.95045 28.9229 10.0844C29.3297 10.2072 29.6012 10.2962 29.7515 10.3567L30.1172 10.5022V22.0918C30.1172 23.5019 29.8709 24.7905 29.3854 25.9221C28.896 27.0616 28.1867 28.0392 27.2772 28.8277C26.3748 29.6104 25.288 30.2107 24.0473 30.6129C22.8207 31.0098 21.4593 31.2114 19.9998 31.2114" fill="white"/>
<defs>
<linearGradient id="paint0_linear_13156_47681" x1="46.4671" y1="-6.79382" x2="-30.9736" y2="71.6271" gradientUnits="userSpaceOnUse">
<stop offset="0.3" stop-color="#A38CFF"/>
<stop offset="0.895958" stop-color="#268BFF"/>
</linearGradient>
</defs>
</svg>